<svg xmlns="http://www.w3.org/2000/svg" width="156.119" height="107.329" viewBox="0 0 156.119 107.329"><defs><style>.a{fill:#a2de96;}</style></defs><g transform="translate(0.001 -10)"><path class="a" d="M13.1,32.192a6.1,6.1,0,1,0-6.1-6.1A6.1,6.1,0,0,0,13.1,32.192Zm0-7.316a1.218,1.218,0,1,1-1.217,1.217A1.221,1.221,0,0,1,13.1,24.877Z" transform="translate(10.08 14.391)"/><path class="a" d="M20.1,27a6.1,6.1,0,1,0,6.1,6.1A6.1,6.1,0,0,0,20.1,27Zm0,7.318a1.22,1.22,0,1,1,1.22-1.22A1.223,1.223,0,0,1,20.1,34.315Z" transform="translate(20.154 24.465)"/><path class="a" d="M9.442,49.266a2.433,2.433,0,0,0,1.725-.715L35.555,24.162a2.439,2.439,0,1,0-3.449-3.449L7.717,45.1a2.439,2.439,0,0,0,1.725,4.164Z" transform="translate(10.079 14.39)"/><path class="a" d="M153.679,100.254H148.8V93.107c0-.051.029-.093.029-.144a68.416,68.416,0,0,0-60.2-67.826,9.758,9.758,0,1,0-16.258,0A67.67,67.67,0,0,0,55.3,29.451,10.153,10.153,0,0,0,52.4,28.344a9.974,9.974,0,0,0-4.827-6.789,10.147,10.147,0,0,0-8.284-.783,10,10,0,0,0-15.144,0,10.179,10.179,0,0,0-8.284.785,9.989,9.989,0,0,0-4.823,6.789,9.987,9.987,0,0,0-7.567,13.1,10,10,0,0,0,0,15.141A10,10,0,0,0,11.03,69.694a9.936,9.936,0,0,0,3.437,5.776,68.556,68.556,0,0,0-2.3,17.493c0,.051.027.093.029.141v7.15H7.32a2.439,2.439,0,0,0,0,4.879H9.759v2.439a9.767,9.767,0,0,0,9.757,9.757H141.482a9.767,9.767,0,0,0,9.757-9.757v-2.439h2.439a2.439,2.439,0,1,0,0-4.879ZM75.622,19.76A4.879,4.879,0,1,1,80.5,24.639,4.884,4.884,0,0,1,75.622,19.76ZM13.081,65a5.14,5.14,0,0,1-4.466-7.928A2.437,2.437,0,0,0,7.7,53.6a5.139,5.139,0,0,1-.01-9.16,2.437,2.437,0,0,0,.937-3.469,5.189,5.189,0,0,1-.141-5.369,5.281,5.281,0,0,1,4.706-2.561H13.2a2.33,2.33,0,0,0,1.827-.712,2.43,2.43,0,0,0,.712-1.827A5.157,5.157,0,0,1,18.3,25.79a5.229,5.229,0,0,1,5.371.137,2.438,2.438,0,0,0,3.471-.932,5.137,5.137,0,0,1,9.155,0,2.43,2.43,0,0,0,1.529,1.229,2.47,2.47,0,0,0,1.942-.3A5.137,5.137,0,0,1,47.7,30.51a2.54,2.54,0,0,0,.825,1.822,2.68,2.68,0,0,0,1.834.712,5.018,5.018,0,0,1,4.6,2.559,5.165,5.165,0,0,1-.139,5.371,2.458,2.458,0,0,0-.3,1.942,2.43,2.43,0,0,0,1.229,1.529,5.139,5.139,0,0,1,0,9.157,2.439,2.439,0,0,0-.92,3.471,5.14,5.14,0,0,1-4.569,7.93h-.015a2.3,2.3,0,0,0-1.827.712,2.43,2.43,0,0,0-.712,1.827,5.157,5.157,0,0,1-2.559,4.72,5.213,5.213,0,0,1-5.371-.141,2.437,2.437,0,0,0-3.471.932,5.139,5.139,0,0,1-9.157,0,2.438,2.438,0,0,0-2.164-1.312,2.454,2.454,0,0,0-1.312.383,5.217,5.217,0,0,1-5.371.129,5.141,5.141,0,0,1-2.554-4.713,2.539,2.539,0,0,0-.822-1.825A2.671,2.671,0,0,0,13.081,65Zm3.974,27.84a63.674,63.674,0,0,1,1.915-15.27,10.071,10.071,0,0,0,5.176-.3,10,10,0,0,0,15.144,0,10.124,10.124,0,0,0,8.282-.781A9.964,9.964,0,0,0,52.4,69.7a10,10,0,0,0,7.569-13.116,10,10,0,0,0,0-15.134,10,10,0,0,0-.776-8.262,63.483,63.483,0,0,1,84.758,59.65c0,.046-.027.081-.027.127v7.289H17.079V92.963C17.079,92.921,17.057,92.887,17.055,92.843Zm124.427,19.608H19.516a4.884,4.884,0,0,1-4.879-4.879v-2.439H146.361v2.439A4.884,4.884,0,0,1,141.482,112.451Z" transform="translate(0)"/><path class="a" d="M34.439,24.88A53.752,53.752,0,0,1,88.13,78.57a2.439,2.439,0,0,0,4.879,0A58.636,58.636,0,0,0,34.439,20a2.439,2.439,0,0,0,0,4.879Z" transform="translate(46.061 14.395)"/></g></svg>