<svg xmlns="http://www.w3.org/2000/svg" width="129.749" height="139.195" viewBox="0 0 129.749 139.195"><defs><style>.a{fill:#a2de96;}</style></defs><g transform="translate(-17.371 0)"><g transform="translate(34.15 0)"><path class="a" d="M139.824,4.129l1.664,4.678a.751.751,0,0,0,.39.439l4.156,1.873a.829.829,0,0,1,0,1.465l-4.156,1.873a.751.751,0,0,0-.39.439l-1.664,4.678a.675.675,0,0,1-1.3,0L136.859,14.9a.751.751,0,0,0-.39-.439l-4.156-1.873a.829.829,0,0,1,0-1.465l4.156-1.873a.75.75,0,0,0,.39-.439l1.664-4.678a.675.675,0,0,1,1.3,0Z" transform="translate(-117.522 -2.646)"/><path class="a" d="M448.869.5l1.664,4.678a.751.751,0,0,0,.39.439l4.156,1.873a.829.829,0,0,1,0,1.465l-4.156,1.873a.75.75,0,0,0-.39.439l-1.664,4.678a.675.675,0,0,1-1.3,0L445.9,11.261a.751.751,0,0,0-.39-.439L441.358,8.95a.829.829,0,0,1,0-1.465l4.156-1.873a.75.75,0,0,0,.39-.439L447.568.5A.675.675,0,0,1,448.869.5Z" transform="translate(-342.549 0)"/><ellipse class="a" cx="2.112" cy="2.113" rx="2.112" ry="2.113" transform="translate(0 6.686) rotate(-22.514)"/><circle class="a" cx="4.897" cy="4.897" r="4.897" transform="translate(69.268 16.234) rotate(-67.486)"/></g><g transform="translate(17.371 17.545)"><path class="a" d="M137.753,125.235a59.756,59.756,0,0,0-6.512-27.251V69.036a4.456,4.456,0,0,0-2.066-3.749,4.66,4.66,0,0,0-4.465-.331c-3.841,1.737-7.318,6.325-10.03,12.97a60.14,60.14,0,0,0-62.943-6.839v-.175a6.179,6.179,0,0,0-6-6.328l-.536,0a5.892,5.892,0,0,0-5.324,3.6,5.735,5.735,0,0,0-10.649,0,5.892,5.892,0,0,0-5.325-3.6h-.634a6.133,6.133,0,0,0-5.9,6.33V91.5a16.988,16.988,0,0,0,4.478,11.7,60.4,60.4,0,0,0,.372,45v25.631a12.358,12.358,0,0,0,24.4,2.78,60.15,60.15,0,0,0,63-.5,12.358,12.358,0,0,0,24.5-2.284V145.85a60.036,60.036,0,0,0,3.626-20.615Zm-5.46,0a54.678,54.678,0,0,1-.854,9.638c-.066-.04-.13-.083-.2-.12v-20.2a54.555,54.555,0,0,1,1.052,10.679Zm-22.885,24.46a40.216,40.216,0,0,1-18.575,13.382L109.407,144.5Zm-62.469-4.286,17.673,17.673a40.2,40.2,0,0,1-17.673-12.254Zm-.642-8.364a5.6,5.6,0,0,0-2.34-2.34l-.4-.4V116.162L77.719,82l31.414,31.414a96.96,96.96,0,0,0,2.884,20.752l-34.3,34.3Zm62.871-31.315-18.34-18.34a40.225,40.225,0,0,1,18.659,13.486Q109.268,103.292,109.167,105.729ZM125.78,70.668v63.393h-8.146A94.6,94.6,0,0,1,116,93.353c2.238-12.334,6.4-20.039,9.775-22.686Zm-48.061-.006a54.316,54.316,0,0,1,35.032,12.768,82.758,82.758,0,0,0-2.119,8.949q-.359,1.979-.633,3.991A43.329,43.329,0,0,0,86.177,82.738L79.65,76.211a2.731,2.731,0,0,0-3.861,0l-6.531,6.531A43.135,43.135,0,0,0,51.736,90.59V77.26a54.228,54.228,0,0,1,25.983-6.6ZM51.346,95.127A40.073,40.073,0,0,1,64.61,87.389L43.559,108.44v-2.57A15.768,15.768,0,0,0,51.346,95.127ZM22.832,70.912c0-.57.326-.869.439-.869H23.9c.234-.063.508.768.461,1.214L26.521,88.2a2.73,2.73,0,0,0,5.417,0l2.155-16.94c-.047-.445.228-1.277.461-1.213.234-.063.508.768.461,1.214L37.169,88.2a2.73,2.73,0,0,0,5.417,0l2.155-16.94c-.048-.44.23-1.278.451-1.214l.536,0a.849.849,0,0,1,.546.867V91.5c0,4.55-2.693,8.827-6.265,9.948a2.73,2.73,0,0,0-1.912,2.6v30.009H30.934l-.08-30.016a2.73,2.73,0,0,0-1.912-2.6c-3.54-1.112-6.11-5.3-6.11-9.948Zm.314,54.322a54.346,54.346,0,0,1,2.262-15.547l.067,24.885a5.576,5.576,0,0,0-1.364.889,54.579,54.579,0,0,1-.965-10.227Zm18.332,48.592a6.9,6.9,0,1,1-13.8,0v-34.2a.109.109,0,0,1,.109-.109h13.58a.109.109,0,0,1,.109.109Zm5.46-3.553V155.689a43.285,43.285,0,0,0,22.319,12.039l6.53,6.53a2.731,2.731,0,0,0,3.862,0l6.536-6.536a43.32,43.32,0,0,0,23.222-12.976v14.891a54.454,54.454,0,0,1-62.469.636Zm81.727,3.552a6.9,6.9,0,0,1-13.8,0v-34.2a.109.109,0,0,1,.109-.109h13.579a.109.109,0,0,1,.109.109v34.2Z" transform="translate(-17.371 -64.538)"/><path class="a" d="M193.3,260.005a76.721,76.721,0,0,0,8.33-7.234c5.858-5.933,8.386-10.854,7.721-15.036a10.479,10.479,0,0,0-10.467-9.7h-.18a10.549,10.549,0,0,0-7.205,3.045,10.489,10.489,0,0,0-17.6,6.975c-.582,4.22,2.066,9.256,7.874,14.971a73.159,73.159,0,0,0,8.353,7.01,2.731,2.731,0,0,0,3.177-.032Zm-13.988-21.248q.02-.132.028-.266a5.057,5.057,0,0,1,4.948-4.753h.083a5.075,5.075,0,0,1,4.677,3.155,2.73,2.73,0,0,0,5.1-.085,5.075,5.075,0,0,1,4.652-3.311h.086a5.03,5.03,0,0,1,5.03,4.728,2.723,2.723,0,0,0,.038.315c.692,3.862-6.33,11.167-12.293,15.859-5.947-4.511-12.966-11.637-12.345-15.64Z" transform="translate(-131.282 -183.586)"/><path class="a" d="M182.058,357.493a2.721,2.721,0,0,1-1.79-.669,63.162,63.162,0,0,1-4.57-4.543c-.663-.706-1.349-1.437-2.028-2.127a2.73,2.73,0,0,1,3.89-3.832c.726.737,1.434,1.492,2.119,2.222a58.062,58.062,0,0,0,4.17,4.158,2.73,2.73,0,0,1-1.792,4.791Z" transform="translate(-130.607 -269.122)"/><path class="a" d="M143.056,318.706a2.723,2.723,0,0,1-1.931-.8l-1.411-1.411a2.73,2.73,0,0,1,3.861-3.862l1.412,1.412a2.73,2.73,0,0,1-1.93,4.661Z" transform="translate(-105.871 -244.603)"/></g></g></svg>