<svg xmlns="http://www.w3.org/2000/svg" width="136.235" height="157.194" viewBox="0 0 136.235 157.194"><defs><style>.a{fill:#a2de96;}</style></defs><g transform="translate(-6 -2)"><path class="a" d="M139.615,75.637h-9.783l12.332-51.793a2.62,2.62,0,0,0-1.913-3.144l-10.48-2.62a2.62,2.62,0,0,0-3.165,1.852l-15.193,55.7h-5.926a12.963,12.963,0,0,0,2.688-7.86v-7.86h-7.86A13.1,13.1,0,0,0,87.445,70.756a12.953,12.953,0,0,0-18.693-2.809c5.366-22.94,5.366-23.225,5.366-23.749a10.48,10.48,0,0,0-11.4-10.435,15.664,15.664,0,0,0-29.6,0A10.48,10.48,0,0,0,21.719,44.2c0,.71.016,1.9,4.454,15.9a13.1,13.1,0,0,0-1.834-.183H16.48v7.86a12.963,12.963,0,0,0,2.688,7.86H8.62A2.62,2.62,0,0,0,6,78.256c0,24.383,22.861,39.822,28.819,43.425v8.973a2.62,2.62,0,0,0,2.62,2.62H110.8a2.62,2.62,0,0,0,2.62-2.62v-8.973c5.958-3.6,28.819-19.041,28.819-43.425a2.62,2.62,0,0,0-2.62-2.62Zm-8.627-51.853,5.478,1.368-12.02,50.485h-7.6ZM92.457,73.017a7.86,7.86,0,0,1,7.86-7.86h2.62v2.62a7.86,7.86,0,0,1-7.86,7.86h-2.62ZM76.737,70.4a7.875,7.875,0,0,1,7.412,5.24H69.326a7.875,7.875,0,0,1,7.412-5.24ZM63.19,75.637H48.366a7.86,7.86,0,0,1,14.823,0ZM26.959,44.2a5.148,5.148,0,0,1,7.134-4.863A2.62,2.62,0,0,0,37.614,37.3a10.427,10.427,0,0,1,20.608,0,2.62,2.62,0,0,0,3.521,2.033,5.148,5.148,0,0,1,7.134,4.684c-.351,1.858-3.422,15.03-5.439,23.658a12.979,12.979,0,0,0-7.661-2.52,13.123,13.123,0,0,0-12.837,10.48h-5.5v-2.62A13.023,13.023,0,0,0,32.558,62.9c-4.868-15.177-5.544-18.214-5.6-18.7Zm-5.24,23.579v-2.62h2.62a7.86,7.86,0,0,1,7.86,7.86v2.62h-2.62A7.86,7.86,0,0,1,21.719,67.777Zm88.369,49.778H97.7v5.24h10.48v5.24H40.059v-5.24H74.117v-5.24H38.146c-2.95-1.745-17.938-11.237-24.166-26.2h28.7v-5.24H12.248a32.521,32.521,0,0,1-.9-5.24h125.54a32.522,32.522,0,0,1-.9,5.24H79.357v5.24h54.9c-6.227,14.962-21.216,24.454-24.166,26.2Z" transform="translate(0 25.92)"/><path class="a" d="M22,44h5.24v5.24H22Z" transform="translate(25.918 68.036)"/><path class="a" d="M26,44h5.24v5.24H26Z" transform="translate(32.398 68.036)"/><path class="a" d="M30,44h5.24v5.24H30Z" transform="translate(38.878 68.036)"/><path class="a" d="M34.526,24.407a7.705,7.705,0,0,0-.445,4.8c1.129,5.292,7.236,10.673,14.208,12.52a81.793,81.793,0,0,0,16.3,2.706h.094a2.62,2.62,0,0,0,2.127-4.147c-.029-.042-2.963-4.118-7.912-10.55-2.2-2.858-8.035-9.589-14.745-10.385a9.636,9.636,0,0,0-5.91,1.161,8.53,8.53,0,0,1-5-7.516H28A13.217,13.217,0,0,0,34.526,24.407Zm8.357.113a5,5,0,0,1,.647.042c3.236.383,7.53,3.592,11.213,8.384,1.679,2.185,3.126,4.092,4.3,5.659a85.2,85.2,0,0,1-9.413-1.931c-5.455-1.444-9.793-5.583-10.425-8.546a2.387,2.387,0,0,1,.92-2.6,4.223,4.223,0,0,1,2.759-1Z" transform="translate(35.638 17.819)"/><path class="a" d="M18,30h5.24v5.24H18Z" transform="translate(19.439 45.357)"/><path class="a" d="M23,32h5.24v5.24H23Z" transform="translate(27.538 48.597)"/><path class="a" d="M12.478,35.18c.686.037,3.167.157,6.448.157,6.526,0,16.209-.482,21.119-3.078a14.787,14.787,0,0,0,6.731-8.633A13.862,13.862,0,0,0,46.377,13c-3.23-6.115-13.008-7.021-19.259-3.715-7.469,3.948-15.9,20.244-16.833,22.088a2.62,2.62,0,0,0,2.193,3.807ZM27.749,20.7l-7.985,4.658c1.229-1.941,2.573-3.893,3.93-5.669Zm3.212,4.189v4.483a82.457,82.457,0,0,1-8.811.658Zm10.831-2.882a9.717,9.717,0,0,1-4.192,5.62,11.2,11.2,0,0,1-1.4.569V21.839l6.165-3.6A11.42,11.42,0,0,1,41.792,22Zm-1.978-8.339-5.586,3.259L27.692,15.3a10.655,10.655,0,0,1,1.884-1.368,11.968,11.968,0,0,1,10.239-.265Z" transform="translate(6.478 8.739)"/><path class="a" d="M56.339,22.959h5.24a2.62,2.62,0,0,0,2.62-2.62A18.36,18.36,0,0,0,45.86,2H40.62A2.62,2.62,0,0,0,38,4.62,18.36,18.36,0,0,0,56.339,22.959ZM45.86,7.24A13.12,13.12,0,0,1,58.7,17.719H56.339A13.12,13.12,0,0,1,43.5,7.24Z" transform="translate(51.837)"/><path class="a" d="M37.86,19.719A7.86,7.86,0,1,0,30,11.86,7.86,7.86,0,0,0,37.86,19.719Zm0-10.48a2.62,2.62,0,1,1-2.62,2.62A2.62,2.62,0,0,1,37.86,9.24Z" transform="translate(38.878 3.24)"/><path class="a" d="M44,20.86A7.86,7.86,0,1,0,51.86,13,7.86,7.86,0,0,0,44,20.86Zm10.48,0a2.62,2.62,0,1,1-2.62-2.62A2.62,2.62,0,0,1,54.48,20.86Z" transform="translate(61.556 17.819)"/><path class="a" d="M37,29h5.24v5.24H37Z" transform="translate(50.217 43.737)"/><path class="a" d="M40,12h5.24v5.24H40Z" transform="translate(55.077 16.199)"/><path class="a" d="M24,3h5.24V8.24H24Z" transform="translate(29.158 1.62)"/><path class="a" d="M45,25h5.24v5.24H45Z" transform="translate(63.176 37.258)"/></g></svg>