<svg xmlns="http://www.w3.org/2000/svg" width="14" height="25.847" viewBox="0 0 14 25.847"><defs><style>.a{fill:#2196f3;}</style></defs><path class="a" d="M127.564,4.308h3.231a.539.539,0,0,0,.538-.538V.538A.538.538,0,0,0,130.795,0h-3.231a5.93,5.93,0,0,0-5.923,5.923V9.692h-3.769a.538.538,0,0,0-.538.538v3.231a.538.538,0,0,0,.538.538h3.769V25.308a.539.539,0,0,0,.538.538h3.231a.539.539,0,0,0,.538-.538V14h3.769a.538.538,0,0,0,.51-.368l1.077-3.231a.539.539,0,0,0-.51-.709h-4.846V5.923A1.615,1.615,0,0,1,127.564,4.308Z" transform="translate(-117.333)"/></svg>