<svg xmlns="http://www.w3.org/2000/svg" width="27.393" height="44.383" viewBox="0 0 27.393 44.383"><defs><style>.a{fill:#a2de96;}</style></defs><g transform="translate(-93.285)"><g transform="translate(93.285)"><path class="a" d="M300.436,45.219,298.4,29.952h.057a1.082,1.082,0,0,0,1.082-1.082V6.862a1.082,1.082,0,0,0-1.587-.958,12.865,12.865,0,0,0-6.862,11.379v9.279a3.389,3.389,0,0,0,3.389,3.389h.257L292.7,45.218a3.9,3.9,0,1,0,7.736,0Z" transform="translate(-273.077 -5.253)"/><path class="a" d="M103.684,0A1.485,1.485,0,0,0,102.2,1.486v8.3h-1.486v-8.3a1.486,1.486,0,0,0-2.971,0v8.3H96.256v-8.3a1.486,1.486,0,0,0-2.971,0V14.894a3.989,3.989,0,0,0,3.99,3.99H97.6l-2.341,21.07a3.989,3.989,0,1,0,7.93,0l-2.342-21.07h.329a3.989,3.989,0,0,0,3.99-3.99V1.486A1.485,1.485,0,0,0,103.684,0Z" transform="translate(-93.285)"/></g></g></svg>