<svg xmlns="http://www.w3.org/2000/svg" xmlns:xlink="http://www.w3.org/1999/xlink" width="25.365" height="25.365" viewBox="0 0 25.365 25.365"><defs><style>.a{fill:url(#a);}.b{fill:url(#b);}.c{fill:url(#c);}</style><linearGradient id="a" x1="0.5" y1="0.008" x2="0.5" y2="0.998" gradientUnits="objectBoundingBox"><stop offset="0" stop-color="#e09b3d"/><stop offset="0.3" stop-color="#c74c4d"/><stop offset="0.6" stop-color="#c21975"/><stop offset="1" stop-color="#7024c4"/></linearGradient><linearGradient id="b" y1="-0.451" y2="1.462" xlink:href="#a"/><linearGradient id="c" y1="-1.396" y2="6.586" xlink:href="#a"/></defs><path class="a" d="M17.808,0H7.556A7.565,7.565,0,0,0,0,7.556V17.808a7.565,7.565,0,0,0,7.556,7.556H17.808a7.565,7.565,0,0,0,7.556-7.556V7.556A7.565,7.565,0,0,0,17.808,0Zm5,17.808a5,5,0,0,1-5,5H7.556a5,5,0,0,1-5-5V7.556a5,5,0,0,1,5-5H17.808a5,5,0,0,1,5,5V17.808Z" transform="translate(0 0)"/><path class="b" d="M139.56,133a6.56,6.56,0,1,0,6.56,6.56A6.568,6.568,0,0,0,139.56,133Zm0,10.569a4.009,4.009,0,1,1,4.009-4.008A4.008,4.008,0,0,1,139.56,143.569Z" transform="translate(-126.878 -126.878)"/><ellipse class="c" cx="1.572" cy="1.572" rx="1.572" ry="1.572" transform="translate(17.683 4.599)"/></svg>