<svg xmlns="http://www.w3.org/2000/svg" xmlns:xlink="http://www.w3.org/1999/xlink" width="31.321" height="29.914" viewBox="0 0 31.321 29.914"><defs><style>.a{fill:url(#a);}.b{fill:url(#b);}.c{fill:url(#c);}.d{fill:url(#d);}.e{fill:url(#e);}.f{fill:url(#f);}.g{fill:url(#g);}</style><linearGradient id="a" x1="0.463" y1="0.914" x2="0.463" y2="-0.169" gradientUnits="objectBoundingBox"><stop offset="0" stop-color="#ffcf95"/><stop offset="0.427" stop-color="#ffc954"/><stop offset="1" stop-color="#ffc200"/></linearGradient><linearGradient id="b" x1="1.217" y1="1.457" x2="-0.633" y2="1.457" gradientUnits="objectBoundingBox"><stop offset="0" stop-color="#ffc200" stop-opacity="0"/><stop offset="0.203" stop-color="#fb0" stop-opacity="0.204"/><stop offset="0.499" stop-color="#ffa700" stop-opacity="0.498"/><stop offset="0.852" stop-color="#f80" stop-opacity="0.851"/><stop offset="1" stop-color="#ff7800"/></linearGradient><linearGradient id="c" x1="0.518" y1="-0.407" x2="0.353" y2="1.223" xlink:href="#b"/><linearGradient id="d" x1="-0.462" y1="-1.03" x2="0.591" y2="-0.306" xlink:href="#b"/><linearGradient id="e" x1="-0.151" y1="-0.116" x2="0.585" y2="-0.571" xlink:href="#b"/><linearGradient id="f" x1="0.61" y1="2.287" x2="0.415" y2="1.017" xlink:href="#b"/><linearGradient id="g" x1="1.34" y1="1.58" x2="-0.083" y2="0.368" xlink:href="#b"/></defs><g transform="translate(0 -11.501)"><path class="a" d="M16.813,12.217l4.143,8.394,9.263,1.346a1.285,1.285,0,0,1,.712,2.192l-6.7,6.534,1.582,9.226a1.285,1.285,0,0,1-1.865,1.355L15.66,36.908,7.375,41.264A1.285,1.285,0,0,1,5.51,39.909l1.582-9.226-6.7-6.534A1.285,1.285,0,0,1,1.1,21.957l9.263-1.346,4.143-8.394A1.285,1.285,0,0,1,16.813,12.217Z" transform="translate(0)"/><path class="b" d="M261.3,20.612l-4.143-8.394A1.27,1.27,0,0,0,256,11.5V27.393Z" transform="translate(-240.341 0)"/><path class="c" d="M264.568,204.854l6.7-6.534a1.269,1.269,0,0,0,.33-1.3L256,201.563Z" transform="translate(-240.34 -174.17)"/><path class="d" d="M265.643,285.059,256,271.289V280.8l8.286,4.356A1.27,1.27,0,0,0,265.643,285.059Z" transform="translate(-240.34 -243.896)"/><path class="e" d="M99.927,271.289l-8.568,3.29-1.582,9.226a1.27,1.27,0,0,0,.507,1.254Z" transform="translate(-84.267 -243.896)"/><path class="f" d="M.968,162.667l15.6,4.543-5.3-6.782-9.263,1.346a1.27,1.27,0,0,0-1.043.892Z" transform="translate(-0.909 -139.818)"/><path class="g" d="M7.1,204.855l-6.7-6.534a1.269,1.269,0,0,1-.33-1.3l15.6,4.543Z" transform="translate(-0.006 -174.171)"/></g></svg>