<svg xmlns="http://www.w3.org/2000/svg" width="32.044" height="26.335" viewBox="0 0 32.044 26.335"><defs><style>.a{fill:#03a9f4;}</style></defs><path class="a" d="M31.86,46.917a.7.7,0,0,0-.836-.148,5.95,5.95,0,0,1-.89.322,6.269,6.269,0,0,0,1.059-2.038.7.7,0,0,0-1.073-.75,14.642,14.642,0,0,1-3.352,1.311,7.011,7.011,0,0,0-8.784-.678,6.913,6.913,0,0,0-3.009,6.388A16.5,16.5,0,0,1,3.421,45.1a.72.72,0,0,0-.592-.261.7.7,0,0,0-.557.34A6.743,6.743,0,0,0,1.5,50.415a7.454,7.454,0,0,0,1.211,2.531,3.7,3.7,0,0,1-.708-.453.7.7,0,0,0-1.135.541,7.2,7.2,0,0,0,3.712,6.186,5.166,5.166,0,0,1-.9-.192.7.7,0,0,0-.836.953A7.6,7.6,0,0,0,8.126,64.3,12.274,12.274,0,0,1,.777,65.813a.687.687,0,0,0-.743.476.7.7,0,0,0,.32.822,20.878,20.878,0,0,0,10.3,2.926,17.683,17.683,0,0,0,9.772-2.988c5.521-3.664,8.963-10.243,8.483-16.129a13.013,13.013,0,0,0,3.029-3.157A.7.7,0,0,0,31.86,46.917Z" transform="translate(0 -43.702)"/></svg>